<svg xmlns="http://www.w3.org/2000/svg" viewBox="0 0 1200 603.29"><defs><style>.cls-1{fill:#1a3b47;}</style></defs><g id="Capa_2" data-name="Capa 2"><g id="Capa_1-2" data-name="Capa 1"><path class="cls-1" d="M242.91,43.25h-.73c-17.24,0-31.05,4.79-41.05,14.26a42.51,42.51,0,0,0-5.08,5.89A45.39,45.39,0,0,0,191,57.49c-9.78-9.32-23.39-14.1-40.45-14.21l-1.4,0c-17.28,0-31.09,4.79-41,14.23S93.15,80.21,93.15,97.29V198.77h20.42V97.29a48.22,48.22,0,0,1,1.51-12.23,27.82,27.82,0,0,1,5.28-10.6,28.17,28.17,0,0,1,10.51-7.71c4.4-2,10.4-3.06,17.41-3.17a6,6,0,0,0,1.73.08c7.46,0,13.56,1,18.09,3.08s8.19,4.71,10.51,7.72l.08.08A26.27,26.27,0,0,1,183.94,85a53.4,53.4,0,0,1,1.52,12.29V198.77h21.18V97.29a54.19,54.19,0,0,1,1.46-12.22,28.29,28.29,0,0,1,5.27-10.56A28.88,28.88,0,0,1,224,66.75c4.45-2,10.54-3.07,17.61-3.13a6.28,6.28,0,0,0,1.62,0c7.4,0,13.47,1.06,18,3.08a29.5,29.5,0,0,1,10.55,7.7A29.15,29.15,0,0,1,277.05,85a51.47,51.47,0,0,1,1.56,12.28V198.77H299V97.29c0-17-5-30.43-14.94-39.81s-23.83-14.23-41.17-14.23"/><path class="cls-1" d="M855.35,57.67a51.12,51.12,0,0,0-17.83-10.85,72,72,0,0,0-45.59,0,50.38,50.38,0,0,0-17.77,10.78A48.64,48.64,0,0,0,762.7,74.68a57.65,57.65,0,0,0-4,21.86v49.84c0,16.87,5.12,30.19,15.21,39.59,9.88,9.27,23.6,14,40.78,14h0c15.56,0,28.31-3.93,38-11.56l4,9.87h14.1V96.54a56.92,56.92,0,0,0-4-21.87,48.68,48.68,0,0,0-11.49-17m-5.43,38.87v49.84a52.64,52.64,0,0,1-1.57,12.21,25.86,25.86,0,0,1-5.08,10.29,27.71,27.71,0,0,1-10.38,7.61c-4.48,2-10.42,3-18.16,3s-13.7-1-18.14-3.08a27.79,27.79,0,0,1-10.33-7.52,26.4,26.4,0,0,1-5.11-10.37,53.21,53.21,0,0,1-1.57-12.19V96.54c0-10.68,3-19,9-24.64s14.72-8.55,26.12-8.61,20.25,3,26.2,8.61,9,14,9,24.64"/><path class="cls-1" d="M695.55,115l-45.76-12.68c-5-1.61-8.54-3.89-10.93-7a15.24,15.24,0,0,1-3.53-9.54c0-5,.89-8.83,2.73-11.6a18.14,18.14,0,0,1,7.11-6.51,30.41,30.41,0,0,1,10.42-3.26l.1,0a74.87,74.87,0,0,1,12.16-1c11.23,0,20.25,2.12,26.85,6.32,5.89,3.68,9,9.93,9.33,18.6a4,4,0,0,0,.07.59V91.6h20.14V88.9a3.12,3.12,0,0,0,.07-.71V88.1c-.44-15-5.94-26.53-16.37-34.14-10-7.11-23.32-10.71-39.45-10.71a91.71,91.71,0,0,0-19.75,2.06,48.51,48.51,0,0,0-17,7.26,37,37,0,0,0-12.08,13.31C616.56,71.35,615,78,615,85.78a34.78,34.78,0,0,0,7.51,22.4c5.06,6.38,11.9,10.6,20.91,12.9l45.9,13.06c5.18,1.51,9,4.06,11.67,7.8a22.44,22.44,0,0,1,3.86,12.31c0,5.68-1,10.1-3.1,13.17a20.53,20.53,0,0,1-7.79,7.25,34.51,34.51,0,0,1-11.63,3.39c-12.15,1.23-20.63,1.07-29-.6a33.63,33.63,0,0,1-11.11-4.34,21.46,21.46,0,0,1-6.91-7.28c-1.68-2.84-2.48-6.55-2.48-11.33a3.94,3.94,0,0,0-.13-1v-2.69h-20l-.38,2.48h0a4.16,4.16,0,0,0-.17,1.29c.31,15.18,5.85,26.7,16.47,34.24,10.26,7.27,23.65,10.95,39.83,10.95a108.53,108.53,0,0,0,21.22-2,51,51,0,0,0,18.37-7.4l.08-.05a40.87,40.87,0,0,0,12.74-14.5c3.05-6,4.6-13.29,4.6-21.57,0-9.73-2.65-18.11-7.87-24.9-5-6.91-12.48-11.75-22.08-14.39"/><path class="cls-1" d="M399,45H342a8.9,8.9,0,0,0-2.24.32l-2.49.57V63.41l2.36.47L340,64a7.91,7.91,0,0,0,2,.28h36.41v115H337.23v18.53l2.31.5c.43.09.56.12,23,.12,25.25,0,62.87-.06,62.87-.06h2.92V179.23H399Z"/><path class="cls-1" d="M1095.87,172.34c-5.41,5.19-12.93,7.82-22.37,7.82-7.77,0-13.53-2.12-17.11-6.28-3.81-4.46-5.66-12.21-5.66-23.7V64.27h43.45a3.74,3.74,0,0,0,1-.13l2.3-.42V45h-2.64a5,5,0,0,0-.63-.05h-43.45V0h-20.27V150.92c0,16.16,3.69,28.47,11,36.58,7.44,8.3,18.23,12.51,32.07,12.51,13.45,0,24.16-3.45,31.8-10.26l1.55-1.39-7.91-19Z"/><path class="cls-1" d="M998.81,179.4a6,6,0,0,0-1.39-.17H970.75V44.9H913.62l-.34,0h-2.71V64h39.61V179.23H913.62a3.53,3.53,0,0,0-.48,0h-2.57v19.05h86.85a7.08,7.08,0,0,0,1.48-.17l.24-.05,2.48-.38V182.33l0-2.69-2.69-.21-.16,0"/><path class="cls-1" d="M523.33,43.25A53.31,53.31,0,0,0,510.25,45a58.48,58.48,0,0,0-13,4.57,46.28,46.28,0,0,0-11.37,7.57c-.19.15-.35.3-.53.46L478.7,44.92H467.14V198.77h20.34V96.11a30.3,30.3,0,0,1,2.62-13.18,30.8,30.8,0,0,1,18.51-17,42.88,42.88,0,0,1,14.72-2.43c7.29,0,13.33,1,17.88,3.07a29.89,29.89,0,0,1,10.5,7.63,27.75,27.75,0,0,1,5.17,10.34,55.45,55.45,0,0,1,1.51,12.24v102h20.27v-102c0-16.94-5-30.21-14.75-39.46s-23.41-14-40.58-14"/><rect class="cls-1" y="339" width="1200" height="15.77"/><path class="cls-1" d="M172.65,578.62l-7.2-23.41H138.53l-7.42,23.41H115L140.34,495h23.52l25.33,83.63Zm-17.25-59.4q-.93-3.13-1.62-6.46T152.49,506h-1q-.72,3.42-1.37,6.73c-.44,2.22-1,4.37-1.6,6.46l-7.09,23h20.94Z"/><path class="cls-1" d="M240.29,578.62V538.45a38.56,38.56,0,0,0-.36-5.74,9,9,0,0,0-1.34-3.79,5.48,5.48,0,0,0-2.72-2.09,13.36,13.36,0,0,0-4.48-.63,29.4,29.4,0,0,0-7.39,1.1,81,81,0,0,0-9.26,3.13v48.19H200V515.26h14.17v5.06a64.37,64.37,0,0,1,10.31-4.81A30.7,30.7,0,0,1,235,513.67q6.71,0,10.72,1.84a14,14,0,0,1,6.12,5.14,19.59,19.59,0,0,1,2.78,7.86,69.56,69.56,0,0,1,.66,9.94v40.17Z"/><path class="cls-1" d="M294,578.62V495H309.8v83.63Z"/><path class="cls-1" d="M367.16,578.62V538.45a40.13,40.13,0,0,0-.35-5.74,9.15,9.15,0,0,0-1.35-3.79,5.48,5.48,0,0,0-2.72-2.09,13.32,13.32,0,0,0-4.48-.63,29.4,29.4,0,0,0-7.39,1.1,81.69,81.69,0,0,0-9.26,3.13v48.19H326.89V515.26h14.17v5.06a64.37,64.37,0,0,1,10.31-4.81,30.7,30.7,0,0,1,10.46-1.84q6.71,0,10.72,1.84a14,14,0,0,1,6.12,5.14,19.59,19.59,0,0,1,2.78,7.86,69.56,69.56,0,0,1,.66,9.94v40.17Z"/><path class="cls-1" d="M437.11,578.62v-3.25a35,35,0,0,1-7.69,3.5,32.32,32.32,0,0,1-10.06,1.45,27.66,27.66,0,0,1-10-1.7,18.65,18.65,0,0,1-7.44-5.22,23.73,23.73,0,0,1-4.65-8.85A44.24,44.24,0,0,1,395.68,552v-9a42,42,0,0,1,2-14,22.54,22.54,0,0,1,5.6-9,20.39,20.39,0,0,1,8.63-4.84A40.7,40.7,0,0,1,423,513.67a65.69,65.69,0,0,1,6.76.33q3.19.33,6.43.93V491.2h14.84v87.42Zm-.77-51.43q-3.24-.5-6.44-.8t-5.4-.3a25.58,25.58,0,0,0-6,.63,9,9,0,0,0-4.38,2.45,11.56,11.56,0,0,0-2.7,5.13,34.09,34.09,0,0,0-.9,8.66v9a31.29,31.29,0,0,0,.71,7.22,11.82,11.82,0,0,0,2.29,4.89,8.8,8.8,0,0,0,4,2.75,18,18,0,0,0,5.92.85,28.36,28.36,0,0,0,6.69-.77,39,39,0,0,0,6.19-2Z"/><path class="cls-1" d="M467.55,578.62V515.26h14.07v5.17a21.62,21.62,0,0,1,4.75-3.27,30.57,30.57,0,0,1,5.3-2.09,32.19,32.19,0,0,1,5.66-1.1,57.3,57.3,0,0,1,5.88-.3V527.3q-2.91,0-5.85.27c-2,.19-3.86.45-5.69.8s-3.55.76-5.16,1.23a32.7,32.7,0,0,0-4.23,1.54v47.48Z"/><path class="cls-1" d="M545.3,578.62v-4.18a35.69,35.69,0,0,1-8.14,3.93,39.41,39.41,0,0,1-5.55,1.4,35.14,35.14,0,0,1-6.37.55q-8.85,0-13.71-4.48t-4.86-13.65v-2.37q0-6.32,2.17-10.1a14.43,14.43,0,0,1,6.13-5.8,27.34,27.34,0,0,1,9.45-2.61,112.87,112.87,0,0,1,12.2-.61h7.53v-4a26.2,26.2,0,0,0-.47-5.47,5.75,5.75,0,0,0-1.9-3.3,8.36,8.36,0,0,0-4-1.59A45.18,45.18,0,0,0,531,526c-3.18,0-6.43.1-9.72.3s-6.71.51-10.22.91v-10a24.76,24.76,0,0,1,3.18-1.05c1.47-.4,3.2-.79,5.2-1.15s4.19-.68,6.59-.94a71.83,71.83,0,0,1,7.45-.38A49.49,49.49,0,0,1,546,515a17.37,17.37,0,0,1,7.81,4.12,15.17,15.17,0,0,1,4,7.17A41.39,41.39,0,0,1,559,536.75v41.87Zm-.82-28.79h-7.86a64.48,64.48,0,0,0-7.06.33,13.66,13.66,0,0,0-4.84,1.31,6,6,0,0,0-2.77,2.89,12,12,0,0,0-.88,5v2.69a8.72,8.72,0,0,0,.66,3.63,5.8,5.8,0,0,0,1.81,2.28,7,7,0,0,0,2.8,1.18,18.54,18.54,0,0,0,3.63.33,24.32,24.32,0,0,0,4.53-.42,39,39,0,0,0,4.15-1,29.13,29.13,0,0,0,3.46-1.27,23.51,23.51,0,0,0,2.37-1.18Z"/><path class="cls-1" d="M640.41,578l-2.94.69c-1.23.27-2.66.53-4.31.79s-3.51.47-5.58.63-4.31.25-6.73.25q-13.68,0-20.16-7.56t-6.49-21.84v-8q0-14.51,6.49-21.9t20.16-7.39q3.63,0,6.73.25t5.58.6c1.65.24,3.08.5,4.31.77s2.21.52,2.94.74V527.3q-6-.49-10.16-.74t-6.82-.25a25.94,25.94,0,0,0-6.15.66,9.25,9.25,0,0,0-4.51,2.5,12,12,0,0,0-2.77,5.08,30.33,30.33,0,0,0-1,8.41v8a30.4,30.4,0,0,0,1,8.38,12,12,0,0,0,2.77,5.11,9.67,9.67,0,0,0,4.51,2.56,24.34,24.34,0,0,0,6.15.71q2.64,0,6.82-.25t10.16-.74Z"/><path class="cls-1" d="M707.89,550.81q0,15.06-7.37,22.29t-21.21,7.22q-13.84,0-21.23-7.22t-7.39-22.29v-7.74q0-15,7.39-22.17t21.23-7.23q13.85,0,21.21,7.23t7.37,22.17Zm-14.73-7.74a32.11,32.11,0,0,0-.79-7.72,12.55,12.55,0,0,0-2.5-5.14,9.83,9.83,0,0,0-4.31-2.89,21.77,21.77,0,0,0-12.39,0,9.8,9.8,0,0,0-4.3,2.89,12.58,12.58,0,0,0-2.53,5.14,31.47,31.47,0,0,0-.82,7.72v7.74a32.38,32.38,0,0,0,.8,7.75,12.57,12.57,0,0,0,2.49,5.19,9.72,9.72,0,0,0,4.31,2.92,21.94,21.94,0,0,0,12.44,0,9.72,9.72,0,0,0,4.31-2.92,12.71,12.71,0,0,0,2.5-5.19,32.43,32.43,0,0,0,.79-7.75Z"/><path class="cls-1" d="M793.16,578.62V537.08c0-1.76,0-3.32-.13-4.67a8.44,8.44,0,0,0-.91-3.44,5,5,0,0,0-2.37-2.14,11.17,11.17,0,0,0-4.55-.74,18.78,18.78,0,0,0-3,.25,26.89,26.89,0,0,0-3.33.74,34.5,34.5,0,0,0-3.49,1.21,34,34,0,0,0-3.4,1.59,29,29,0,0,1,.3,3.68c0,1.21,0,2.38,0,3.52v41.54H757.5V537.08c0-1.76,0-3.33-.14-4.7a9.17,9.17,0,0,0-.82-3.46,4.52,4.52,0,0,0-2.17-2.12,10,10,0,0,0-4.18-.71,17.87,17.87,0,0,0-3.54.36,31.28,31.28,0,0,0-3.57.93c-1.19.39-2.34.82-3.43,1.29s-2.13,1-3.08,1.43v48.52H721.84V515.26H736v5.06a31.68,31.68,0,0,1,8.76-4.86,29.18,29.18,0,0,1,10.14-1.79,19.38,19.38,0,0,1,9.07,1.81,13.46,13.46,0,0,1,5.33,5.06,39.75,39.75,0,0,1,10.35-5.3,30.6,30.6,0,0,1,9.32-1.57,26.85,26.85,0,0,1,7.61.94,16.08,16.08,0,0,1,5.27,2.55,11.94,11.94,0,0,1,3.32,3.85,20.1,20.1,0,0,1,1.85,4.78,29.66,29.66,0,0,1,.79,5.38c.11,1.89.17,3.78.17,5.69v41.76Z"/><path class="cls-1" d="M824.15,601.8V515.26h13.79v4.18a32.31,32.31,0,0,1,9.13-4.37,33.53,33.53,0,0,1,9.44-1.4,27.05,27.05,0,0,1,9.57,1.59,17.16,17.16,0,0,1,7.19,5.14,24.24,24.24,0,0,1,4.54,9.23,53.17,53.17,0,0,1,1.56,13.88v5.88a46,46,0,0,1-2,14.75,23.74,23.74,0,0,1-5.71,9.48,21,21,0,0,1-8.82,5.08,40.07,40.07,0,0,1-11.35,1.51c-1,0-2.05,0-3.18-.11s-2.27-.17-3.39-.3-2.19-.28-3.24-.44-2-.34-2.77-.52v23Zm40.5-58.29a39,39,0,0,0-.74-8.3,13.28,13.28,0,0,0-2.26-5.25,8.11,8.11,0,0,0-3.79-2.75,16.54,16.54,0,0,0-5.36-.79,30.1,30.1,0,0,0-3,.14,21.57,21.57,0,0,0-3.1.52,33.06,33.06,0,0,0-3.49,1c-1.25.44-2.62,1-4.12,1.65v36.81q3.24.61,6.15.91a54.2,54.2,0,0,0,5.55.3,24.19,24.19,0,0,0,6-.68,8.9,8.9,0,0,0,4.45-2.7,13.42,13.42,0,0,0,2.78-5.6,37.67,37.67,0,0,0,1-9.42Z"/><path class="cls-1" d="M928.93,578.62v-4.18a34,34,0,0,1-3.54,2,35,35,0,0,1-4.59,1.9,40.13,40.13,0,0,1-5.55,1.4,35.22,35.22,0,0,1-6.37.55q-8.85,0-13.71-4.48t-4.86-13.65v-2.37q0-6.32,2.17-10.1a14.4,14.4,0,0,1,6.12-5.8,27.34,27.34,0,0,1,9.46-2.61,112.68,112.68,0,0,1,12.19-.61h7.53v-4a26.2,26.2,0,0,0-.47-5.47,5.73,5.73,0,0,0-1.89-3.3,8.36,8.36,0,0,0-4-1.59,45.27,45.27,0,0,0-6.76-.41q-4.78,0-9.73.3c-3.29.2-6.7.51-10.22.91v-10a24.49,24.49,0,0,1,3.19-1.05c1.46-.4,3.2-.79,5.19-1.15s4.2-.68,6.6-.94a71.64,71.64,0,0,1,7.44-.38A49.52,49.52,0,0,1,929.64,515a17.28,17.28,0,0,1,7.8,4.12,15.18,15.18,0,0,1,4,7.17,41.85,41.85,0,0,1,1.15,10.47v41.87Zm-.82-28.79h-7.86a64.61,64.61,0,0,0-7.06.33,13.54,13.54,0,0,0-4.83,1.31,6,6,0,0,0-2.78,2.89,12.17,12.17,0,0,0-.88,5v2.69a8.72,8.72,0,0,0,.66,3.63,5.89,5.89,0,0,0,1.81,2.28,7.15,7.15,0,0,0,2.81,1.18,18.51,18.51,0,0,0,3.62.33,24.5,24.5,0,0,0,4.54-.42,40.21,40.21,0,0,0,4.15-1,29.79,29.79,0,0,0,3.46-1.27,24.27,24.27,0,0,0,2.36-1.18Z"/><path class="cls-1" d="M998.61,578.62V538.45a38.56,38.56,0,0,0-.36-5.74,9.15,9.15,0,0,0-1.35-3.79,5.43,5.43,0,0,0-2.72-2.09,13.26,13.26,0,0,0-4.47-.63,29.27,29.27,0,0,0-7.39,1.1,80.38,80.38,0,0,0-9.26,3.13v48.19H958.33V515.26h14.18v5.06a63.88,63.88,0,0,1,10.3-4.81,30.76,30.76,0,0,1,10.47-1.84q6.71,0,10.71,1.84a14,14,0,0,1,6.13,5.14,19.58,19.58,0,0,1,2.77,7.86,69.56,69.56,0,0,1,.66,9.94v40.17Z"/><path class="cls-1" d="M1047.29,578.18l-23.62-62.92h16.09l11,33.63c.44,1.43.84,2.82,1.21,4.18s.72,2.72,1.07,4.09.7,2.78,1.07,4.2.77,2.92,1.21,4.46c.69-3.12,1.35-6,2-8.69s1.35-5.42,2.19-8.24l10.06-33.63H1085L1063,581a93.8,93.8,0,0,1-3.9,9.78,26.76,26.76,0,0,1-4.64,7,16.7,16.7,0,0,1-6.32,4.17,25.25,25.25,0,0,1-8.88,1.38,80.07,80.07,0,0,1-8.62-.44c-2.68-.3-4.84-.6-6.49-.94V591.09c1.28.07,2.45.15,3.49.22s2,.13,2.94.16l2.69.09c.88,0,1.82,0,2.81,0a10.35,10.35,0,0,0,3.43-.5,6.18,6.18,0,0,0,2.47-1.62,11.76,11.76,0,0,0,2-2.94,45.64,45.64,0,0,0,1.9-4.45Z"/></g></g></svg>